<?xml version="1.0" encoding="UTF-8" standalone="no"?>
<svg
   width="122.06192"
   height="25"
   viewBox="0 0 122.06192 25"
   fill="none"
   version="1.1"
   id="svg22"
   sodipodi:docname="logo-alfa.svg"
   inkscape:version="1.1.1 (3bf5ae0d25, 2021-09-20)"
   xmlns:inkscape="http://www.inkscape.org/namespaces/inkscape"
   xmlns:sodipodi="http://sodipodi.sourceforge.net/DTD/sodipodi-0.dtd"
   xmlns="http://www.w3.org/2000/svg"
   xmlns:svg="http://www.w3.org/2000/svg">
  <defs
     id="defs26" />
  <sodipodi:namedview
     id="namedview24"
     pagecolor="#ffffff"
     bordercolor="#666666"
     borderopacity="1.0"
     inkscape:pageshadow="2"
     inkscape:pageopacity="0.0"
     inkscape:pagecheckerboard="0"
     showgrid="false"
     inkscape:zoom="3.5583333"
     inkscape:cx="60.983607"
     inkscape:cy="12.224824"
     inkscape:window-width="1920"
     inkscape:window-height="1001"
     inkscape:window-x="-9"
     inkscape:window-y="-9"
     inkscape:window-maximized="1"
     inkscape:current-layer="svg22" />
  <path
     fill-rule="evenodd"
     clip-rule="evenodd"
     d="m 116.57867,10.453318 5.08558,-5.609333 h -3.78806 l -4.16536,4.667409 V 4.843985 h -3.01375 v 11.783752 h 3.01375 v -4.960369 l 4.45785,4.960369 h 3.89324 z"
     fill="#f03024"
     id="path2"
     style="stroke-width:0.678619" />
  <path
     fill-rule="evenodd"
     clip-rule="evenodd"
     d="m 105.38213,9.239335 h -4.16469 V 4.844257 h -3.014421 v 11.783547 h 3.014421 v -4.646507 h 4.16469 v 4.646507 h 3.01375 V 4.844257 h -3.01375 z"
     fill="#f03024"
     id="path4"
     style="stroke-width:0.678619" />
  <path
     fill-rule="evenodd"
     clip-rule="evenodd"
     d="m 17.895737,11.227758 c -0.07207,2.197031 -0.355732,2.637183 -1.590616,2.637183 v 2.762863 h 0.46024 c 3.080525,0 3.821442,-1.590887 3.935042,-5.127919 l 0.125749,-3.913938 h 2.888068 v 9.041857 h 3.014292 V 4.844257 h -8.623421 z"
     fill="#f03024"
     id="path6"
     style="stroke-width:0.678619" />
  <path
     fill-rule="evenodd"
     clip-rule="evenodd"
     d="m 32.042848,8.42316 h 2.176604 c 2.867439,0 4.500129,1.465207 4.500129,4.060248 0,2.009663 -1.172179,4.144464 -4.458326,4.144464 H 29.02876 V 4.844053 h 3.014088 z m -3.39e-4,5.6094 h 1.946416 c 1.067401,0 1.67429,-0.48148 1.67429,-1.549152 0,-0.983456 -0.627791,-1.444035 -1.67429,-1.444035 h -1.946416 z"
     fill="#f03024"
     id="path8"
     style="stroke-width:0.678619" />
  <path
     fill-rule="evenodd"
     clip-rule="evenodd"
     d="M 48.535947,4.571927 V 0.1974783 H 45.522198 V 4.571927 c -3.453358,0.29296 -5.776883,2.741962 -5.776883,6.153517 0,3.432457 2.323525,5.881459 5.776883,6.174419 v 4.437153 h 3.013749 v -4.437153 c 3.453426,-0.272059 5.776951,-2.741962 5.776951,-6.174419 0,-3.432728 -2.323525,-5.881459 -5.776951,-6.153517 z m -3.014088,9.481399 c -1.674562,-0.230256 -2.721061,-1.486109 -2.721061,-3.327882 0,-1.841841 1.046499,-3.097694 2.721061,-3.327949 z m 5.734809,-3.327882 c 0,-1.841841 -1.046499,-3.097694 -2.72106,-3.327949 v 6.655831 c 1.674561,-0.230256 2.72106,-1.486109 2.72106,-3.327882 z"
     fill="#f03024"
     id="path10"
     style="stroke-width:0.678619" />
  <path
     fill-rule="evenodd"
     clip-rule="evenodd"
     d="m 65.61483,9.050951 v 3.956012 c 0,0.648692 0.209354,0.899849 0.753539,0.899849 v 2.72106 H 65.32187 c -1.151075,0 -2.030294,-0.439609 -2.427829,-1.234951 -0.446328,0.658328 -1.467311,1.527911 -3.307252,1.527911 -2.508517,0 -4.248768,-1.674561 -4.248768,-4.123223 0,-2.344427 1.590684,-3.746658 4.269941,-3.746658 h 2.993119 c 0,-1.423133 -0.753811,-1.96725 -1.925719,-1.96725 -1.423132,0 -1.883643,0.7532 -1.98849,1.192809 h -3.055823 c 0.146649,-2.009053 1.841841,-3.935042 5.044313,-3.935042 3.097627,0 4.939468,1.821143 4.939468,4.709483 z m -5.232835,5.316372 c 1.255853,0 2.218679,-0.77444 2.218679,-2.134801 v -0.77444 h -2.407131 c -0.816244,0 -1.758168,0.188181 -1.758168,1.339527 0,1.172179 0.858047,1.569714 1.94662,1.569714 z"
     fill="#f03024"
     id="path12"
     style="stroke-width:0.678619" />
  <path
     fill-rule="evenodd"
     clip-rule="evenodd"
     d="m 75.158459,6.518343 h 3.37002 c 3.62112,0 5.69294,1.883915 5.69294,5.002443 0,3.307048 -2.07182,5.107018 -5.69294,5.107018 h -6.53035 V 0.1972747 h 10.96785 v 2.9931188 h -7.80752 z m 0,7.137244 h 3.22344 c 1.67416,0 2.61608,-0.732298 2.61608,-2.134801 0,-1.36036 -0.94192,-2.134801 -2.61608,-2.134801 h -3.22344 z"
     fill="#f03024"
     id="path14"
     style="stroke-width:0.678619" />
  <path
     fill-rule="evenodd"
     clip-rule="evenodd"
     d="m 95.754559,9.050951 v 3.956012 c 0,0.648692 0.20901,0.899849 0.75327,0.899849 v 2.72106 h -1.04576 c -1.15161,0 -2.0311,-0.439609 -2.4281,-1.234951 -0.44653,0.658328 -1.46785,1.527911 -3.30759,1.527911 -2.50818,0 -4.24883,-1.674561 -4.24883,-4.123223 0,-2.344427 1.59068,-3.746658 4.26987,-3.746658 h 2.99339 c 0,-1.423133 -0.75395,-1.96725 -1.92592,-1.96725 -1.42307,0 -1.88385,0.7532 -1.98836,1.192809 h -3.05582 c 0.14658,-2.009053 1.84177,-3.935042 5.04418,-3.935042 3.0979,0 4.93967,1.821143 4.93967,4.709483 z m -5.23284,5.316372 c 1.25613,0 2.21841,-0.77444 2.21841,-2.134801 v -0.77444 h -2.40706 c -0.81638,0 -1.75831,0.188181 -1.75831,1.339527 0,1.172179 0.85846,1.569714 1.94696,1.569714 z"
     fill="#f03024"
     id="path16"
     style="stroke-width:0.678619" />
  <path
     fill-rule="evenodd"
     clip-rule="evenodd"
     d="M 0,25 H 16.116397 V 21.650877 H 0 Z"
     fill="#f03024"
     id="path18"
     style="stroke-width:0.678619" />
  <path
     fill-rule="evenodd"
     clip-rule="evenodd"
     d="m 8.184218,0 c 1.814493,0 2.344155,1.082398 2.803649,2.4527342 l 4.7521,14.1748668 H 12.223565 L 11.156164,13.25812 H 4.793578 L 3.642273,16.627601 H 0.335251 L 5.322189,2.4527342 C 5.805766,1.0781227 6.369224,0 8.184218,0 Z M 8.017142,3.6927754 5.756586,10.411311 h 4.479235 L 8.100748,3.6927754 Z"
     fill="#f03024"
     id="path20"
     style="stroke-width:0.678619" />
</svg>
