<?xml version="1.0" encoding="UTF-8" standalone="no"?>
<svg
   width="112.2225"
   height="25"
   viewBox="0 0 112.2225 25"
   fill="none"
   version="1.1"
   id="svg8"
   sodipodi:docname="logo-atb.svg"
   inkscape:version="1.1.1 (3bf5ae0d25, 2021-09-20)"
   xmlns:inkscape="http://www.inkscape.org/namespaces/inkscape"
   xmlns:sodipodi="http://sodipodi.sourceforge.net/DTD/sodipodi-0.dtd"
   xmlns="http://www.w3.org/2000/svg"
   xmlns:svg="http://www.w3.org/2000/svg">
  <defs
     id="defs12" />
  <sodipodi:namedview
     id="namedview10"
     pagecolor="#ffffff"
     bordercolor="#666666"
     borderopacity="1.0"
     inkscape:pageshadow="2"
     inkscape:pageopacity="0.0"
     inkscape:pagecheckerboard="0"
     showgrid="false"
     inkscape:zoom="7.1166667"
     inkscape:cx="22.622951"
     inkscape:cy="5.1288056"
     inkscape:window-width="1920"
     inkscape:window-height="1001"
     inkscape:window-x="-9"
     inkscape:window-y="-9"
     inkscape:window-maximized="1"
     inkscape:current-layer="svg8" />
  <path
     d="M 38.616125,5.703938 C 38.418062,5.133062 38.136875,5 37.521875,5 H 35.8445 c -0.615,0 -0.872188,0.133062 -1.092625,0.745625 l -5.21575,13.931187 c -0.215625,0.590125 -0.06387,0.873938 0.592688,0.873938 h 1.504812 c 1.089438,0 1.375375,-0.176375 1.597438,-0.80975 l 0.693312,-2.0525 H 39.311 l 0.677313,2.057312 c 0.198124,0.633375 0.525562,0.80975 1.615062,0.80975 h 1.634188 c 0.639,0 0.80675,-0.283812 0.591062,-0.873937 z M 34.8605,14.791 35.99625,11.377125 c 0.305375,-0.858063 0.478812,-1.75775 0.514437,-2.66825 h 0.194875 c 0.0795,0.915688 0.266126,1.818813 0.555938,2.690688 L 38.395688,14.791 Z M 53.483687,5.001625 H 43.120938 c -0.677313,0 -0.892938,0.219688 -0.892938,0.896312 v 1.46725 c 0,0.657438 0.215625,0.878688 0.892938,0.878688 h 3.424999 v 11.4105 c 0,0.676687 0.218813,0.896375 0.870563,0.896375 h 1.77 c 0.67575,0 0.896187,-0.219688 0.896187,-0.896375 v -11.4105 h 3.401 c 0.677313,0 0.896188,-0.22125 0.896188,-0.878687 v -1.46725 c 0,-0.676625 -0.218875,-0.896313 -0.896188,-0.896313 z m 9.319438,5.716437 H 59.269688 V 8.178125 h 6.567187 c 0.655005,0 0.894375,-0.2405 0.894375,-0.897937 V 5.897938 C 66.73125,5.218063 66.49188,5 65.836875,5 h -9.228563 c -0.653374,0 -0.896187,0.218063 -0.896187,0.897938 v 13.799749 c 0,0.655813 0.263625,0.853063 0.870625,0.853063 h 6.220375 c 3.01125,0 4.974375,-1.880938 4.974375,-4.906688 0,-3.065937 -1.963125,-4.925999 -4.974375,-4.926 z m -0.503062,6.65775 H 59.264875 V 13.893 h 3.035188 c 1.158062,0 1.813062,0.702375 1.813062,1.751062 0,1.048688 -0.655,1.731751 -1.813062,1.73175 z"
     fill="#312a20"
     id="path2"
     style="stroke-width:0.625" />
  <path
     d="m 75,23.333313 h 0.26875 V 2.2221875 H 75 Z M 83.07375,8.269625 c -0.2675,-0.0017 -0.52687,-0.09563 -0.73438,-0.266063 l -0.14062,0.208 c 0.16,0.188688 0.60438,0.312875 0.915,0.312875 0.55812,0 0.95937,-0.259624 0.95937,-0.698312 0.009,-0.293 -0.21625,-0.539187 -0.50687,-0.553125 V 7.2633 C 83.815,7.19174 83.98687,6.961612 83.985,6.700487 c 0,-0.380562 -0.29563,-0.616 -0.8375,-0.616 -0.32,-0.01463 -0.6325,0.09569 -0.87375,0.308 L 82.3825,6.60055 c 0.20312,-0.173375 0.46187,-0.26575 0.72812,-0.259688 0.35625,0 0.59,0.140313 0.59,0.406438 -0.007,0.121125 -0.0612,0.234562 -0.15125,0.314875 -0.09,0.08031 -0.20875,0.120812 -0.32875,0.112437 h -0.3675 v 0.222563 h 0.39625 c 0.33125,0 0.5375,0.145125 0.5375,0.39025 0.005,0.304812 -0.28937,0.482187 -0.71312,0.482187 z M 94.765,6.132875 H 94.49312 V 8.477688 H 94.765 Z m 6.03125,0.941813 h -1.185 v 0.256375 h 1.185 z m -4.31812,1.403 L 95.245,7.252062 96.39312,6.132875 H 96.04437 L 94.925,7.26175 96.12937,8.471188 Z M 86.51875,6.523125 V 8.477688 H 86.7875 V 6.132875 h -0.26875 l -1.55,1.9545 v -1.9545 h -0.27 v 2.344813 h 0.27 z m -7.245,0.712812 h 1.73687 l 0.52751,1.240125 h 0.30562 L 80.26688,4.796 h -0.23375 l -1.58188,3.681688 h 0.28938 z m 0.86812,-2.043249 0.75,1.773937 h -1.505 z m 10.3225,3.283374 h 0.26875 V 6.403812 H 91.6575 V 6.132875 h -2.11937 v 0.270938 h 0.92625 z m 7.37,-2.393187 c -0.6675,0.0053 -1.205,0.55425 -1.20125,1.227187 0.004,0.672938 0.54625,1.216063 1.21375,1.214313 0.6675,-0.0017 1.2075,-0.54775 1.2075,-1.22075 C 99.06627,6.97475 98.94125,6.655875 98.70937,6.42425 98.4775,6.192625 98.16,6.069375 97.83437,6.0845 Z m 0,2.185125 c -0.39,0.0099 -0.7475,-0.219563 -0.90375,-0.58025 -0.15625,-0.360625 -0.08,-0.78075 0.1925,-1.0625 C 97.39562,6.3435 97.81,6.256187 98.17187,6.404437 98.53312,6.552625 98.77,6.906875 98.77,7.300437 98.7838,7.557 98.6906,7.807812 98.51312,7.991937 98.335,8.176062 98.08875,8.27675 97.83437,8.269625 Z M 88.29375,6.082875 c -0.26188,-1.87e-4 -0.51813,0.07413 -0.74,0.2145 l 0.0731,0.224125 c 0.19563,-0.121688 0.42125,-0.184875 0.65125,-0.182188 0.57875,0 0.60938,0.359626 0.60938,0.917563 -0.18813,-0.121062 -0.4075,-0.182812 -0.63,-0.177375 -0.5025,0 -0.885,0.259625 -0.885,0.728938 -0.009,0.192499 0.065,0.379562 0.2025,0.513499 0.1375,0.134 0.32562,0.201875 0.51562,0.186375 0.31625,0.01788 0.61875,-0.130437 0.8,-0.391875 v 0.359625 h 0.26875 V 7.024687 C 89.15625,6.429625 88.94,6.0845 88.29375,6.0845 Z M 88.8875,7.881 c -0.15875,0.239125 -0.42813,0.37875 -0.71375,0.36925 -0.28937,0 -0.51625,-0.16125 -0.51625,-0.457937 0,-0.345125 0.32,-0.483813 0.625,-0.483813 0.21688,-0.0059 0.42875,0.05987 0.605,0.187063 z M 93.98,8.140625 93.84562,7.94225 C 93.66125,8.149938 93.3975,8.267438 93.12062,8.264813 92.86312,8.276373 92.6125,8.178123 92.43,7.994125 92.2475,7.810063 92.15,7.557188 92.16125,7.297188 c -0.008,-0.25125 0.0844,-0.49525 0.25625,-0.67725 0.17187,-0.181938 0.40937,-0.286563 0.65875,-0.290313 0.26687,-0.0084 0.5275,0.08488 0.72937,0.26125 L 93.935,6.371563 C 93.68187,6.160688 93.3575,6.056125 93.03,6.079625 c -0.31625,0.002 -0.6175,0.133 -0.83563,0.363063 -0.21812,0.230062 -0.335,0.539625 -0.3225,0.85775 0,0.740187 0.51188,1.219124 1.23,1.219124 0.33375,0.01306 0.65563,-0.124749 0.87813,-0.375749 z m 3.98375,3.810687 c -0.26188,-2.5e-4 -0.51875,0.07413 -0.74063,0.214438 l 0.0737,0.224187 c 0.19563,-0.122187 0.42125,-0.185937 0.65125,-0.183875 0.57875,0 0.60875,0.359625 0.60875,0.917625 -0.1875,-0.1205 -0.40687,-0.181687 -0.63,-0.175812 -0.50187,0 -0.88437,0.259687 -0.88437,0.728937 -0.009,0.192438 0.065,0.379375 0.2025,0.513063 0.1375,0.13375 0.32562,0.201187 0.51562,0.185187 0.31563,0.01856 0.61813,-0.129125 0.8,-0.39025 v 0.359625 h 0.26875 v -1.451375 c -0.0112,-0.59825 -0.22562,-0.94175 -0.86562,-0.94175 z m 0.59312,1.798063 c -0.1575,0.24 -0.4275,0.380375 -0.71312,0.370937 -0.28938,0 -0.51625,-0.161312 -0.51625,-0.459624 0,-0.343501 0.31937,-0.483813 0.625,-0.483813 0.21687,-0.0061 0.42938,0.06025 0.60438,0.188687 z m -4.3675,-1.751313 h -0.34562 l -1.1275,1.136938 1.20437,1.209437 h 0.36125 l -1.24124,-1.225562 z m 7.13313,1.02725 h -1.51 v -1.02725 h -0.26875 v 2.346375 h 0.26875 v -1.064312 h 1.51 v 1.064312 h 0.26875 v -2.346375 h -0.26875 z m -5.73875,-1.074 c -0.76437,0 -1.17875,0.537 -1.17875,1.219125 0,0.740188 0.5025,1.22075 1.23625,1.22075 0.31875,0.0076 0.62687,-0.1125 0.8575,-0.333812 l -0.0881,-0.208 c -0.205,0.190625 -0.47563,0.293 -0.755,0.285438 -0.55813,0 -0.93063,-0.3435 -0.95938,-0.906313 h 1.91938 c 0.0106,-0.07262 0.015,-0.145937 0.0144,-0.219312 0.0119,-0.2835 -0.0944,-0.559063 -0.29312,-0.76 C 96.13818,12.04825 95.86505,11.94025 95.5838,11.951312 Z M 94.69,13.004375 c 0.009,-0.222375 0.10562,-0.431875 0.26875,-0.581813 0.16313,-0.149875 0.37938,-0.227875 0.59937,-0.2165 0.215,-0.01469 0.42563,0.06438 0.57875,0.217125 0.15313,0.15275 0.23375,0.364438 0.22125,0.581188 z m 12.87,0.948187 v -1.9545 h -0.27188 v 2.346375 H 107.56 l 1.55125,-1.954499 v 1.9545 H 109.38 v -2.346375 h -0.26875 z m 4.39375,-1.9545 -1.55188,1.9545 v -1.9545 h -0.26812 v 2.346375 h 0.26812 l 1.55188,-1.954499 v 1.9545 h 0.26875 v -2.346375 z m -0.73938,-0.553125 c 0.18313,0.013 0.36313,-0.05144 0.49625,-0.177875 0.13375,-0.1265 0.20938,-0.303437 0.2075,-0.488187 H 111.675 c 0.003,0.123437 -0.045,0.2425 -0.13188,0.329187 -0.0875,0.08669 -0.20625,0.133313 -0.32875,0.128813 -0.125,0.0076 -0.2475,-0.03731 -0.33812,-0.124125 -0.0906,-0.08675 -0.14188,-0.207625 -0.14125,-0.333875 h -0.24813 c 0,0.380625 0.27188,0.666063 0.72438,0.666063 z M 79.8,14.347687 h 0.28438 v -3.38175 h 1.33875 v -0.270875 h -2.97188 v 0.270875 H 79.79 Z m 23.65125,-0.209625 c -0.25813,0.01156 -0.50875,-0.08669 -0.69125,-0.270687 -0.1825,-0.184063 -0.28,-0.436938 -0.26813,-0.696938 -0.008,-0.251125 0.0844,-0.494937 0.25625,-0.67675 0.17188,-0.181875 0.40938,-0.286625 0.65813,-0.290812 0.26875,-0.01087 0.53125,0.08069 0.73625,0.256375 l 0.1275,-0.219313 c -0.25313,-0.210437 -0.57625,-0.314937 -0.90375,-0.291875 -0.31563,0.0015 -0.61688,0.132125 -0.835,0.362 -0.21875,0.229813 -0.335,0.539188 -0.3225,0.857188 0,0.740187 0.51187,1.22075 1.23,1.22075 0.33437,0.01181 0.65625,-0.127813 0.8775,-0.380562 l -0.13438,-0.198375 c -0.18562,0.211437 -0.45375,0.330437 -0.73375,0.32575 z m 3.26937,-2.13675 h -0.3475 l -1.11937,1.136875 1.20437,1.2095 h 0.36125 l -1.24125,-1.225625 z m -1.89687,2.346375 h 0.26875 v -2.349625 h -0.26875 z M 90.45812,11.9545 c -0.6675,0.0054 -1.205,0.554562 -1.20124,1.22775 0.004,0.673125 0.5475,1.216125 1.21499,1.21375 0.6675,-0.0024 1.2075,-0.549188 1.20625,-1.222313 0.0131,-0.329999 -0.11187,-0.650375 -0.34499,-0.882812 -0.23251,-0.232438 -0.55126,-0.355688 -0.87813,-0.339563 z m 0,2.183562 c -0.39062,0.0098 -0.74749,-0.219625 -0.90374,-0.58025 -0.15625,-0.360687 -0.08,-0.78075 0.19249,-1.062562 0.2725,-0.28175 0.68688,-0.369063 1.04875,-0.220813 0.36125,0.148251 0.59813,0.5025 0.59813,0.896 0.0125,0.256375 -0.0819,0.506375 -0.26,0.6895 -0.17813,0.183188 -0.42438,0.282813 -0.67875,0.274876 z m -1.68937,-0.967625 c 0.004,-0.4985 -0.29063,-0.950125 -0.74625,-1.143625 -0.45563,-0.1935 -0.9825,-0.09069 -1.33313,0.2605 -0.35125,0.351125 -0.4575,0.881125 -0.26875,1.342063 0.18813,0.461 0.63376,0.761812 1.12813,0.761812 0.32562,0.01425 0.6425,-0.109625 0.87375,-0.3415 0.23125,-0.231874 0.35562,-0.550687 0.34312,-0.87925 z m -2.15563,0 c 0.0131,-0.517687 0.4375,-0.927875 0.95125,-0.919062 0.51313,0.0088 0.92375,0.433312 0.91938,0.951125 -0.004,0.517812 -0.42125,0.935375 -0.935,0.935562 -0.255,0.008 -0.50188,-0.09206 -0.68063,-0.275875 -0.17875,-0.183875 -0.27312,-0.434687 -0.26,-0.69175 z m 5.67438,1.174 h 0.26875 V 11.998062 H 92.2875 Z m -6.50938,0 h 0.33125 L 85.185,13.135 86.05812,11.998062 h -0.32 l -0.75,0.967563 -0.73875,-0.967563 h -0.33125 l 0.87313,1.146563 -0.92438,1.199812 h 0.32 L 84.98625,13.3075 Z m -2.68062,0 h 0.26875 v -2.346375 h -0.27688 l -1.54937,1.9545 v -1.9545 h -0.26875 v 2.346375 H 81.54 l 1.54937,-1.948062 z m 5.83,3.513938 h -0.34562 l -1.1275,1.128875 1.20437,1.2095 h 0.36312 l -1.24125,-1.224 z m -6.28562,-0.04675 c -0.26125,-10e-4 -0.5175,0.07281 -0.73875,0.212875 l 0.0719,0.224187 c 0.19563,-0.1215 0.42125,-0.184687 0.65063,-0.18225 0.57937,0 0.61125,0.359625 0.61125,0.917563 -0.18875,-0.12075 -0.40875,-0.182438 -0.63188,-0.177375 -0.50062,0 -0.88437,0.26125 -0.88437,0.730562 -0.009,0.192688 0.065,0.379938 0.2025,0.513688 0.13812,0.13375 0.32625,0.201062 0.51687,0.184562 0.31625,0.01694 0.61813,-0.131125 0.8,-0.391875 v 0.359625 h 0.26875 v -1.451375 c -0.006,-0.596687 -0.22375,-0.940187 -0.87,-0.940187 z m 0.595,1.798125 c -0.15875,0.238625 -0.42875,0.378125 -0.71313,0.36925 -0.29125,0 -0.51875,-0.16125 -0.51875,-0.457938 0,-0.3435 0.32,-0.483812 0.62563,-0.483812 0.21687,-0.0056 0.42937,0.06006 0.60625,0.187062 z m 3.79375,0.593437 h 0.26875 v -2.344812 h -0.26875 z m -1.02188,-1.317562 h -1.51 v -1.02725 H 84.23 v 2.344812 h 0.26875 v -1.06275 h 1.51 v 1.06275 h 0.26813 V 17.858375 H 86.00875 Z M 79.91,18.029312 c -0.15,0 -0.39812,0.01131 -0.61062,0.03231 v -1.235313 h 1.71125 v -0.270937 h -1.9975 v 3.647812 c 0.21062,0 0.49062,0.01612 0.81062,0.01612 0.85875,0 1.385,-0.385437 1.385,-1.136937 0,-0.645063 -0.44437,-1.053063 -1.30187,-1.053063 z m -0.0413,1.919063 c -0.20687,0 -0.39875,-0.01125 -0.56937,-0.01612 V 18.3325 c 0.19875,-0.02187 0.39937,-0.03262 0.59937,-0.03225 0.69438,0 1.03,0.312875 1.03,0.79825 -0.003,0.541875 -0.36,0.849875 -1.06375,0.849875 z"
     fill="#312a20"
     id="path4"
     style="stroke-width:0.625" />
  <path
     d="M 20.834688,0 H 4.166938 C 1.8688,0.00619 0.007082,1.8671875 0,4.165313 V 20.834687 C 0.0071,23.132812 1.8688,24.993812 4.166938,25 h 16.66775 C 23.132562,24.9938 24.993812,23.132562 25,20.834687 V 4.165313 C 24.993812,1.8674375 23.132562,0.0061875 20.834688,0 Z m 2.860125,20.391562 c -0.03681,0.05088 -0.10525,0.06731 -0.161125,0.03869 -6.78425,-4.077875 -15.265376,-4.077875 -22.049638,0 -0.0559,0.02862 -0.124319,0.01219 -0.161137,-0.03869 -0.03773,-0.05519 -0.0257,-0.130187 0.02739,-0.170812 l 0.0145,-0.01125 C 7.396685,15.536312 11.350435,8.67975 12.373497,1.11825 c 0.01,-0.062563 0.06394,-0.1085625 0.127313,-0.1085625 0.06331,0 0.117312,0.046 0.127312,0.1085625 1.027125,7.564 4.986875,14.420937 11.024812,19.09125 l 0.0145,0.01125 c 0.05231,0.04106 0.06425,0.115437 0.02737,0.170812 z"
     fill="#d86a43"
     id="path6"
     style="stroke-width:0.625" />
</svg>
