<?xml version="1.0" encoding="UTF-8" standalone="no"?>
<svg
   width="160.57471"
   height="25"
   viewBox="0 0 160.57471 25"
   version="1.1"
   id="svg14"
   sodipodi:docname="logo-open.svg"
   inkscape:version="1.1.1 (3bf5ae0d25, 2021-09-20)"
   xmlns:inkscape="http://www.inkscape.org/namespaces/inkscape"
   xmlns:sodipodi="http://sodipodi.sourceforge.net/DTD/sodipodi-0.dtd"
   xmlns="http://www.w3.org/2000/svg"
   xmlns:svg="http://www.w3.org/2000/svg">
  <defs
     id="defs18" />
  <sodipodi:namedview
     id="namedview16"
     pagecolor="#ffffff"
     bordercolor="#666666"
     borderopacity="1.0"
     inkscape:pageshadow="2"
     inkscape:pageopacity="0.0"
     inkscape:pagecheckerboard="0"
     showgrid="false"
     inkscape:zoom="4.575"
     inkscape:cx="80.437158"
     inkscape:cy="12.349727"
     inkscape:window-width="1920"
     inkscape:window-height="1001"
     inkscape:window-x="-9"
     inkscape:window-y="-9"
     inkscape:window-maximized="1"
     inkscape:current-layer="svg14" />
  <g
     fill="none"
     fill-rule="nonzero"
     id="g12"
     transform="matrix(0.57471264,0,0,0.57471264,0,-0.22988506)">
    <path
       fill="#000000"
       d="m 235.6,0.4 h 1 v 43.3 h -1 z"
       id="path2" />
    <g
       fill="#000000"
       id="g6">
      <path
         d="M 253.4,27 H 250 V 17 h 5.9 v 1 h -4.7 v 3.2 h 2.2 c 2,0 3.3,0.8 3.3,2.8 v 0.1 c -0.1,1.9 -1.3,2.9 -3.3,2.9 z m -0.1,-0.9 c 1.5,0 2.1,-0.7 2.1,-1.9 v -0.1 c 0,-1.2 -0.7,-1.9 -2.2,-1.9 h -2.1 v 3.9 z m 4.5,-1.1 c 0,-1.7 1.8,-2.3 3.7,-2.3 h 1.1 v -0.5 c 0,-1.2 -0.4,-1.7 -1.6,-1.7 -1,0 -1.6,0.4 -1.7,1.3 h -1.2 c 0.2,-1.7 1.5,-2.3 2.9,-2.3 1.4,0 2.7,0.6 2.7,2.6 V 27 h -1.2 v -0.9 c -0.5,0.7 -1.2,1.1 -2.3,1.1 -1.4,0 -2.4,-0.7 -2.4,-2.2 z m 4.7,-0.5 v -0.9 h -1 c -1.5,0 -2.5,0.4 -2.5,1.4 0,0.8 0.4,1.2 1.4,1.2 1.1,0 2.1,-0.6 2.1,-1.7 z m 7.9,-0.7 h -3.6 V 27 h -1.2 v -7.3 h 1.2 v 3.1 h 3.6 v -3.1 h 1.2 V 27 h -1.2 z m 4.3,-0.5 V 27 h -1.2 v -7.3 h 1.2 v 3.4 l 3,-3.4 h 1.4 l -3.1,3.4 3.4,3.9 H 278 Z"
         id="path4" />
    </g>
    <path
       fill="#00bef0"
       d="M 21.7,0.5 C 9.7,0.5 0,10.2 0,22.2 c 0,12 9.7,21.7 21.7,21.7 12,0 21.7,-9.7 21.7,-21.7 0,-12 -9.7,-21.7 -21.7,-21.7 z m -3,30.9 -1.6,4.7 c -6,-2 -10,-7.7 -10,-14.1 0,-6.4 4,-12 10.1,-14.1 l 1.6,4.7 c -4,1.3 -6.6,5.1 -6.6,9.3 -0.2,4.4 2.5,8.2 6.5,9.5 z m 7.4,4.8 -1.5,-4.8 c 4.1,-1.3 6.8,-5.1 6.8,-9.4 0,-4.3 -2.7,-8 -6.7,-9.3 l 1.6,-4.8 c 6.1,2 10.2,7.7 10.2,14.1 0,6.6 -4.2,12.3 -10.4,14.2 z"
       id="path8" />
    <path
       fill="#000000"
       d="m 220.4,26.1 2.4,2.9 c -2.5,2.6 -5.6,3.3 -8.1,3.3 -2.4,0 -4.1,-0.4 -5.6,-1.1 -3.2,-1.6 -4.8,-4.8 -4.8,-8.7 0,-5.9 4,-10.3 9.9,-10.3 6.6,0 9.8,4.9 9.3,11.3 h -15 c 0.1,1.6 1,3.1 2.3,3.9 1.1,0.7 2.4,1 4.1,1 1.9,0 3.8,-0.6 5.5,-2.3 z M 208.6,20 h 10.6 c -0.3,-2.3 -2.2,-4.3 -5.2,-4.3 -3.1,0 -5,2.2 -5.4,4.3 z M 107.9,31.7 h 5.4 l -8.5,-9.9 8.4,-9.3 h -5.3 l -6.4,7.4 h -1.9 v -7.4 h -4.1 v 19.1 h 4.1 V 24 h 1.9 z M 125.5,16 c -3.5,0 -5.8,2.7 -5.8,6.1 0,3.4 2.3,6.1 5.8,6.1 3.5,0 5.7,-2.6 5.7,-6.1 0.1,-3.3 -2.1,-6.1 -5.7,-6.1 z m 0.7,-3.9 c 5.4,0 9.4,4.2 9.4,10 0,5.7 -3.9,10.1 -9.4,10.1 -2.6,0 -4.7,-0.9 -6.2,-2.5 v 10 h -4.2 V 12.6 h 4.1 v 2.3 c 1.6,-1.9 3.7,-2.8 6.3,-2.8 z m 54.5,0.5 h -17.1 v 3.8 h 6.5 v 15.3 h 4.2 V 16.4 h 6.5 v -3.8 z m -88.1,0 H 75.4 v 3.8 h 6.5 v 15.3 h 4.2 V 16.4 h 6.5 z m -22.2,9.6 c 0,-3.6 -2.5,-6.2 -6,-6.2 -3.4,0 -6,2.6 -6,6.2 0,3.6 2.5,6.2 6,6.2 3.4,0 6,-2.6 6,-6.2 z m -16.3,0 c 0,-5.7 4.4,-10 10.3,-10 5.8,0 10.3,4.3 10.3,10 0,5.7 -4.4,10.1 -10.3,10.1 C 58.6,32.2 54.1,27.9 54.1,22.2 Z M 201,12.6 v 19.1 h -4.1 V 19.4 l -10,12.3 h -3.3 V 12.6 h 4.1 v 12.3 l 10,-12.3 z m -40.3,19.1 h -4.1 V 12.6 h 4.1 z m -10.6,-6.5 c 0,-1.7 -1.2,-2.9 -2.8,-2.9 h -4.2 v 5.9 h 4.2 c 1.6,0 2.8,-1.3 2.8,-3 z m 4.1,0 c 0,3.8 -2.8,6.5 -6.8,6.5 H 139 V 12.6 h 4.1 v 6.2 h 4.7 c 4,0 6.4,2.6 6.4,6.4 z"
       id="path10" />
  </g>
</svg>
