<?xml version="1.0" encoding="UTF-8" standalone="no"?>
<svg
   width="162"
   height="25.62336"
   viewBox="0 0 162 25.62336"
   fill="none"
   version="1.1"
   id="svg4"
   sodipodi:docname="logo-mts.svg"
   inkscape:version="1.1.1 (3bf5ae0d25, 2021-09-20)"
   xmlns:inkscape="http://www.inkscape.org/namespaces/inkscape"
   xmlns:sodipodi="http://sodipodi.sourceforge.net/DTD/sodipodi-0.dtd"
   xmlns="http://www.w3.org/2000/svg"
   xmlns:svg="http://www.w3.org/2000/svg">
  <defs
     id="defs8" />
  <sodipodi:namedview
     id="namedview6"
     pagecolor="#ffffff"
     bordercolor="#666666"
     borderopacity="1.0"
     inkscape:pageshadow="2"
     inkscape:pageopacity="0.0"
     inkscape:pagecheckerboard="0"
     showgrid="false"
     inkscape:zoom="3.5583333"
     inkscape:cx="80.936769"
     inkscape:cy="12.505855"
     inkscape:window-width="1920"
     inkscape:window-height="1001"
     inkscape:window-x="-9"
     inkscape:window-y="-9"
     inkscape:window-maximized="1"
     inkscape:current-layer="svg4" />
  <path
     fill-rule="evenodd"
     clip-rule="evenodd"
     d="m 0,15.438707 c 0,4.905094 2.924892,9.859011 9.48267,9.859011 v 0.01396 c 6.54354,0 9.47556,-4.974904 9.47556,-9.859011 C 18.86193,11.78658 17.75259,8.2139223 15.7473,5.1121043 13.77351,2.1048582 11.45646,0.31168 9.48267,0.31168 7.508925,0.31168 5.156136,2.1048582 3.218121,5.1121043 1.213101,8.2092684 0.1013544,11.776745 0,15.438707 Z M 106.641,7.665458 H 96.2145 v -0.00694 c -4.4334,0 -7.35156,1.4861927 -7.35156,5.128396 0,3.642204 2.91816,5.135334 7.35156,5.135334 h 10.4265 v 6.028454 H 96.2145 c -9.58284,0 -14.6961,-4.486502 -14.6961,-11.163788 0,-6.6773732 5.11326,-11.1638749 14.6961,-11.1638749 h 10.4265 z m -39.33945,0 H 60.66504 V 1.6370038 H 81.04653 V 7.665458 H 74.41002 V 23.957642 H 67.30155 Z M 46.20501,1.6370038 42.41475,14.963827 38.62449,1.6370038 H 26.0667 V 23.957642 h 7.10847 V 5.8024704 l 5.1633,18.1551716 h 8.15256 L 51.66144,5.7885086 V 23.957642 h 7.10847 V 1.6370038 Z m 73.40139,6.4680335 h -2.5101 v 2.1839347 h 2.5101 c 0.6363,0 1.0089,-0.3069853 1.0089,-0.8722215 V 9.0121198 c 0,-0.5861351 -0.3222,-0.9070825 -1.0089,-0.9070825 z m 0.6363,4.6888167 h -6.4926 V 1.623042 h 9.5391 v 2.6723369 h -6.2001 v 1.4582689 h 3.1473 c 2.6244,0 3.897,1.2280298 3.897,3.3980028 0,2.2815804 -1.2726,3.6352664 -3.897,3.6352664 z m 11.6289,-4.5632477 h -2.646 l 1.323,-4.123581 z m 5.0913,4.5563107 -3.6612,-11.163875 h -5.0418 l -3.6612,11.163875 h 3.1248 l 0.6723,-2.135112 h 4.1904 l 0.7155,2.135112 z m 8.46,0.01387 V 8.4748073 h -3.8331 v 4.3259837 h -3.4326 V 1.6370038 h 3.4326 v 4.0887203 h 3.8331 V 1.6370038 h 3.4326 V 12.800791 Z m 9.5328,-7.0750669 h -0.6003 V 1.6370038 h -3.4326 V 12.800791 h 3.4326 V 8.4748073 h 0.5004 l 3.1752,4.3259837 H 162 l -4.2975,-5.8470371 3.9546,-5.3167501 h -3.6261 z"
     fill="#e30613"
     id="path2"
     style="stroke-width:0.888985" />
</svg>
