<?xml version="1.0" encoding="UTF-8" standalone="no"?>
<svg
   width="197.0943"
   height="25"
   viewBox="0 0 197.0943 25"
   fill="none"
   version="1.1"
   id="svg6"
   sodipodi:docname="logo-halva.svg"
   inkscape:version="1.1.1 (3bf5ae0d25, 2021-09-20)"
   xmlns:inkscape="http://www.inkscape.org/namespaces/inkscape"
   xmlns:sodipodi="http://sodipodi.sourceforge.net/DTD/sodipodi-0.dtd"
   xmlns="http://www.w3.org/2000/svg"
   xmlns:svg="http://www.w3.org/2000/svg">
  <defs
     id="defs10" />
  <sodipodi:namedview
     id="namedview8"
     pagecolor="#ffffff"
     bordercolor="#666666"
     borderopacity="1.0"
     inkscape:pageshadow="2"
     inkscape:pageopacity="0.0"
     inkscape:pagecheckerboard="0"
     showgrid="false"
     inkscape:zoom="3.5583333"
     inkscape:cx="98.360657"
     inkscape:cy="11.943794"
     inkscape:window-width="1920"
     inkscape:window-height="1001"
     inkscape:window-x="-9"
     inkscape:window-y="-9"
     inkscape:window-maximized="1"
     inkscape:current-layer="svg6"
     fit-margin-top="0"
     fit-margin-left="0"
     fit-margin-right="0"
     fit-margin-bottom="0" />
  <path
     d="m 0,12.500055 c 0.00206,1.646394 0.3321477,3.275816 0.970995,4.793224 0.6388494,1.517407 1.5736457,2.892358 2.7497841,4.044375 2.3979259,2.350459 5.6227609,3.665625 8.9805249,3.66234 h 0.509708 V 20.246737 H 12.701304 C 10.651261,20.203267 8.697651,19.367806 7.2500043,17.915659 5.8151688,16.477856 5.0093268,14.529579 5.0093268,12.498412 c 0,-2.031276 0.805842,-3.9794431 2.2406775,-5.417246 C 8.697651,5.629019 10.651261,4.7935581 12.701304,4.7499784 h 0.509708 V 5.7538426e-6 H 12.701304 C 9.34354,-0.00317425 6.118705,1.3118873 3.7207791,3.6623464 2.5446407,4.814472 1.6098444,6.1893143 0.970995,7.7067214 0.3321477,9.2241285 0.0020566,10.85366 0,12.500055"
     fill="#fc5055"
     id="path2"
     style="stroke-width:1.09497" />
  <path
     fill-rule="evenodd"
     clip-rule="evenodd"
     d="M 15.240317,6.7434777 V 0.24998706 c 2.847136,0.57233995 5.413086,2.10047774 7.27267,4.33114724 1.853344,2.2188438 2.868598,5.0180208 2.868598,7.9090657 0,2.891045 -1.015254,5.690222 -2.868598,7.909175 -1.866264,2.240524 -4.444915,3.772823 -7.305191,4.340893 v -6.493491 h -2.545363 c -0.776004,0.01818 -1.547957,-0.1153 -2.272782,-0.392875 C 9.667574,17.576875 9.0082826,17.15805 8.450659,16.622172 7.8930354,16.086295 7.4483688,15.444206 7.1428945,14.733681 6.8387123,14.027755 6.6818143,13.26708 6.6818143,12.498303 c 0,-0.768668 0.156898,-1.529343 0.4610802,-2.235378 C 7.6085846,9.1871186 8.3870413,8.2762144 9.3771336,7.6485786 10.367226,7.0209427 11.523228,6.7055918 12.694844,6.7434777 Z M 38.418826,4.6298604 c 2.727347,0 4.957797,1.1850842 5.896185,2.0648913 L 42.743513,8.5876234 C 41.512987,7.5863844 39.982331,7.0261986 38.39616,6.9967439 c -3.428565,0 -5.571418,2.3214424 -5.571418,5.5194071 0,3.198074 2.03248,5.500026 5.613574,5.500026 1.724685,-0.02891 3.381591,-0.676472 4.668836,-1.824656 l 1.487076,1.948059 c -0.938388,0.973974 -3.276036,2.23702 -6.168833,2.23702 -5.045504,0 -8.168901,-3.340967 -8.168901,-7.86691 0,-4.5259416 3.204534,-7.8798296 8.162332,-7.8798296 z m 15.58775,0 c 4.668835,0 8.06488,3.3441428 8.06488,7.8700846 0,4.526052 -3.396045,7.86691 -8.06488,7.86691 -4.668836,0 -8.061705,-3.340858 -8.061705,-7.86691 0,-4.5259418 3.40579,-7.8700846 8.061705,-7.8700846 z m 0,13.3668256 c 0.728811,0.02102 1.454337,-0.106759 2.132122,-0.375464 0.677895,-0.268815 1.293815,-0.672858 1.810421,-1.187494 0.516496,-0.514744 0.92273,-1.12924 1.193844,-1.80615 0.271114,-0.676909 0.401415,-1.401888 0.38302,-2.130808 0,-1.463864 -0.581538,-2.8678317 -1.616612,-3.9029053 -1.035073,-1.0350735 -2.439042,-1.6166112 -3.902795,-1.6166112 -1.463863,0 -2.867832,0.5815377 -3.902905,1.6166112 -1.035074,1.0350736 -1.616612,2.4390413 -1.616612,3.9029053 -0.01938,0.729249 0.110373,1.454884 0.381159,2.132341 0.270676,0.677567 0.6768,1.29261 1.193515,1.807793 0.516606,0.515182 1.132964,0.919445 1.811297,1.188259 0.678223,0.268706 1.404187,0.39627 2.133546,0.374808 z m 18.941419,2.02602 c 3.753332,0 5.194858,-2.149313 5.194858,-4.366843 0,-2.061716 -1.324692,-3.026055 -2.685081,-3.467546 1.353928,-0.883201 1.922107,-1.980579 1.922107,-3.1851531 0,-2.1298229 -1.792244,-4.0162343 -4.892866,-4.0162343 H 64.821359 V 20.022706 Z m -5.616859,-8.68507 V 7.3408925 l 5.175368,0.022666 c 1.532408,0 2.298667,0.8799166 2.298667,1.9123622 0,1.1136923 -0.896122,2.0617153 -2.623325,2.0617153 z m 8.237009,4.298737 c 0,1.048651 -0.678552,2.022734 -2.448021,2.022734 h -5.798733 v -4.08445 h 5.844174 c 1.59088,0 2.40258,0.925357 2.40258,2.061716 z m 12.620276,-3.373269 6.792198,7.759712 h -3.344143 l -5.67533,-6.577913 h -2.902651 v 6.577913 H 80.545542 V 4.987039 h 2.512953 v 6.201353 h 2.902651 l 5.519516,-6.2109887 h 3.324653 z m 22.584049,0.236841 c 0,-4.5259418 -3.39571,-7.8700846 -8.06455,-7.8700846 -4.655915,0 -8.061704,3.3441428 -8.061704,7.8700846 0,4.526052 3.392869,7.86691 8.061704,7.86691 4.66884,0 8.06455,-3.340858 8.06455,-7.86691 z m -5.93177,5.122153 c -0.67811,0.268595 -1.40386,0.39605 -2.13278,0.374588 v 0.0033 c -0.72903,0.02048 -1.45467,-0.107635 -2.13245,-0.376778 -0.677896,-0.269144 -1.293815,-0.673406 -1.810312,-1.18837 -0.516496,-0.514963 -0.92262,-1.129678 -1.193734,-1.806807 -0.271005,-0.677019 -0.401416,-1.402216 -0.38302,-2.131246 0,-1.463864 0.581537,-2.8678317 1.616611,-3.9029053 1.035074,-1.0350735 2.439045,-1.6166112 3.902905,-1.6166112 1.46386,0 2.86772,0.5815377 3.9028,1.6166112 1.03507,1.0350736 1.61661,2.4390413 1.61661,3.9029053 0.0188,0.72903 -0.11114,1.454227 -0.38204,2.131356 -0.271,0.677128 -0.67724,1.291843 -1.19384,1.806588 -0.51661,0.514854 -1.13275,0.918897 -1.81075,1.187384 z M 127.70506,4.9774033 h 2.42536 V 20.01307 h -2.51296 V 8.844284 l -5.02371,6.607148 h -1.52858 l -5.0259,-6.5974028 V 20.022816 h -2.51295 V 4.987039 h 2.42864 l 5.87341,7.71438 z m 19.1291,10.5745467 c 0,-2.483826 -1.83079,-4.431884 -5.19453,-4.431884 l -5.60076,0.0097 V 7.3506377 h 9.38059 V 4.9869296 H 133.51277 V 20.022706 h 8.29548 c 3.18855,0 5.02591,-1.987039 5.02591,-4.470756 z m -2.58413,0.01621 c 0,1.146103 -0.79823,2.090951 -2.5458,2.090951 h -5.66536 v -4.178618 h 5.66536 c 1.76071,0 2.5458,0.941564 2.5458,2.087667 z m 16.54607,4.45455 -1.65997,-3.759793 h -7.21694 l -1.66216,3.759793 h -2.75056 l 6.64317,-15.0357764 h 2.76918 l 6.64317,15.0357764 z m -7.91005,-6.019479 h 5.27008 L 155.51945,8.0064142 Z M 179.2726,4.9774073 h -2.51296 v 6.2304797 h -8.84406 V 4.987039 h -2.51295 v 15.035777 h 2.51295 v -6.44805 h 8.84406 v 6.438304 h 2.51296 z m 11.0329,7.2857007 6.7888,7.759712 h -3.34403 l -5.67522,-6.577913 h -2.90277 v 6.577913 h -2.51295 V 4.987039 h 2.51295 v 6.201353 h 2.90277 l 5.51973,-6.2109887 h 3.33418 z"
     fill="#003790"
     id="path4"
     style="stroke-width:1.09497" />
</svg>
