<svg version="1.1" viewBox="0 0 142.81 25" xmlns="http://www.w3.org/2000/svg"><path d="m25 12.504c-8.09e-4 2.4722-0.73458 4.8885-2.1086 6.9437-1.3738 2.0552-3.3264 3.6567-5.6106 4.6022-2.284 0.94546-4.7974 1.1924-7.2219 0.70982-2.4245-0.48276-4.6514-1.6736-6.3992-3.4219-1.7477-1.7483-2.9378-3.9757-3.4198-6.4004-0.48212-2.4247-0.23434-4.9377 0.71193-7.2215s2.5483-4.2359 4.604-5.6093c2.0555-1.3734 4.4721-2.1063 6.9441-2.1063 1.6418 0 3.2677 0.32351 4.7844 0.95193 1.5169 0.62842 2.895 1.5494 4.0558 2.7106 1.1607 1.1612 2.0814 2.5396 2.7093 4.0566 0.62809 1.5169 0.95096 3.1427 0.95047 4.7846" fill="#fff" stroke-width="1.6184"/><path d="m6.7646 12.504 5.7355 5.7355 5.7357-5.7355-5.7357-5.7587zm-5.8776 0c0-2.2979 0.6815-4.5441 1.9581-6.4546 1.2767-1.9105 3.0913-3.3994 5.2143-4.2785 2.123-0.87927 4.459-1.1091 6.7126-0.66046 2.2536 0.44845 4.3235 1.5553 5.948 3.1804 1.6245 1.625 2.7305 3.6952 3.1783 5.949 0.44781 2.2538 0.21735 4.5897-0.66256 6.7124-0.87991 2.1227-2.3695 3.9367-4.2803 5.2126-1.911 1.2761-4.1575 1.9568-6.4552 1.956-1.5253 0-3.0358-0.30053-4.445-0.88428-1.4091-0.58391-2.6896-1.4397-3.7681-2.5185-1.0783-1.0786-1.9336-2.3594-2.5171-3.7689-0.58343-1.4093-0.88347-2.9199-0.88299-4.4452" fill="#cb2128" stroke-width="1.6184"/><path d="m48.046 16.186c0-0.93283-0.62955-1.4434-2.1499-1.4434h-4.4072v2.9484h4.3649c1.2131 0 1.8275-0.07687 1.9657-0.17656 0.13821-0.09985 0.22641-0.45687 0.22641-1.3284zm-2.2534-5.9929h-4.3036v2.7373h4.4072c1.0749 0 1.597-0.07299 1.7084-0.15358 0.11134-0.0806 0.18433-0.38388 0.18433-1.2016 0-0.89059-0.58359-1.3821-1.9963-1.3821zm-4.5878 9.2138c-0.8791 0-1.4012-0.06134-1.5587-0.19194-0.15731-0.13044-0.21104-0.57582-0.21104-1.3436v-7.8587c0-0.76776 0.0691-1.2361 0.21104-1.3628 0.14209-0.12672 0.67956-0.19194 1.5587-0.19194h4.5226c2.7179 0 4.077 0.95339 4.077 2.8602 0 1.1978-0.4211 1.9336-1.263 2.2075l-0.16135 0.05373 0.15747 0.06134c0.47872 0.18708 0.88315 0.52549 1.1516 0.96374 0.30248 0.47839 0.45865 1.0348 0.44926 1.6009 0 2.1345-1.4512 3.2016-4.3536 3.2016zm20.639-5.5014c0 3.7035-1.519 5.5551-4.557 5.5551-1.8273 0-3.0443-0.49134-3.6624-1.4742v5.4515c-1.1057 0-1.7545-0.0806-1.9464-0.23806-0.19194-0.15731-0.26493-0.67567-0.26493-1.6046v-13.118c0.84463 0 1.336 0.0691 1.4742 0.21104 0.13821 0.14209 0.2112 0.56821 0.2112 1.3399 0.64751-1.1209 2.027-1.6828 4.1385-1.6852 3.0712 0 4.6069 1.8542 4.6069 5.5627zm-2.2651 0c0-1.2131-0.18417-2.1076-0.55284-2.6873-0.47597-0.68328-1.2745-1.0251-2.3955-1.0251-1.5088 0-2.3994 0.15747-2.6605 0.47224s-0.38388 1.3975-0.38388 3.244c0 1.2093 0.17657 2.0846 0.52597 2.6336 0.45687 0.69866 1.2745 1.0519 2.4493 1.0519 1.5125 0 2.3879-0.1497 2.6336-0.44926 0.24567-0.2994 0.38388-1.3936 0.38388-3.2363zm14.205-0.02687c0 3.6907-1.7916 5.5347-5.3746 5.5321-3.5831-0.0026-5.3567-1.8466-5.3209-5.5321 0-3.6702 1.7814-5.5052 5.3439-5.5052 3.5627 0 5.3454 1.8351 5.3479 5.5052zm-2.3072 0c0-1.1516-0.19583-2.0155-0.57971-2.5799-0.47612-0.72164-1.3015-1.0788-2.48-1.0788-1.5357 0-2.4315 0.15747-2.6875 0.47224-0.24567 0.2994-0.36462 1.3591-0.36462 3.1864 0 2.4609 1.0058 3.6894 3.029 3.6894 1.5357 0 2.4416-0.1497 2.6873-0.44926 0.24584-0.2994 0.38405-1.3936 0.38405-3.2402zm13.214 5.1636c-0.19582 0.15731-0.8715 0.23806-2.0309 0.23806v-8.5612h-5.3785v8.5573c-1.1518 0-1.8351-0.0806-2.027-0.23806-0.19194-0.15731-0.29179-0.70254-0.29179-1.6316v-6.9103c0-1.0364 0.0884-1.643 0.23806-1.8234 0.1497-0.18045 0.70254-0.29179 1.6315-0.29179h6.2923c0.92911 0 1.4742 0.09597 1.6316 0.29179 0.15747 0.19566 0.2303 0.76776 0.23807 1.8234v6.9103c0 0.92911-0.096 1.4743-0.28791 1.6316zm11.559 0.23418c-0.84479 0-1.3368-0.06911-1.4776-0.2112-0.14242-0.14209-0.20715-0.61418-0.20715-1.4243-0.35119 0.53439-0.85774 0.94821-1.4517 1.1863-0.86098 0.38291-1.7948 0.57177-2.7373 0.55284-1.0484 0.05567-2.0884-0.21233-2.9793-0.76776-0.39942-0.27367-0.72261-0.6446-0.93899-1.0778-0.21621-0.43324-0.31849-0.91455-0.29713-1.3983-0.022-0.47726 0.0608-0.95339 0.24259-1.395 0.18175-0.44182 0.45801-0.83832 0.80936-1.1618 0.76776-0.68344 1.9196-1.029 3.4245-1.029h3.3971c0-0.79074-0.23466-1.3525-0.70561-1.6852-0.46124-0.33403-1.2057-0.49911-2.2431-0.49911h-2.2107c-0.82537 0-1.3091-0.06911-1.451-0.2112-0.14209-0.14209-0.21119-0.69477-0.21119-1.6046h3.7969c2.0165 0 3.4245 0.41204 4.2224 1.2361 0.6862 0.68328 1.0293 1.8069 1.0293 3.3708zm-2.2156-4.6337v-0.34552h-3.0523c-1.2471 0-1.9765 0.07671-2.1877 0.23806-0.21104 0.16119-0.31866 0.65642-0.31866 1.5355 0 1.0238 0.80887 1.5357 2.4271 1.5357 1.5634 0 2.4761-0.12801 2.7367-0.38388 0.26055-0.25603 0.38841-1.1338 0.38355-2.6336zm-56.023 4.7642h-7.1252c-1.1518 0-1.8197-0.07671-2.0155-0.2379-0.19582-0.16135-0.29179-0.72568-0.29179-1.6969v-9.6975c0-0.96747 0.09597-1.5357 0.29179-1.6931 0.19582-0.15731 0.86373-0.2379 2.0155-0.2379h5.2172c0.95598 0 1.5127 0.08059 1.67 0.2379 0.15747 0.15747 0.23806 0.72568 0.23806 1.6931h-7.1252v3.7622h4.58c0.93672 0 1.4857 0.0806 1.6469 0.24179 0.15747 0.15747 0.23418 0.70642 0.23418 1.6394h-6.4611v4.054h5.0599c1.0403 0 1.6431 0.0806 1.8004 0.24179 0.15747 0.16119 0.26493 0.7218 0.26493 1.693z" fill="#295aa5" stroke-width="1.6184"/><path d="m135.21 19.349c-1.1523 0-1.8352-0.0806-2.0311-0.23806-0.19583-0.15747-0.28807-0.7218-0.28807-1.6854v-9.0602c1.1523 0 1.8352 0.07299 2.0278 0.2112 0.19097 0.13821 0.29131 0.64104 0.29131 1.501zm7.5983-0.03852c-0.84318 0.03107-1.688-0.01133-2.523-0.12656-0.48875-0.21864-0.91277-0.56142-1.2284-0.99433l-3.397-3.8967c-0.13918-0.15941-0.21687-0.36414-0.21525-0.57582 0-0.02686-0.0421-0.58359 0.38356-0.76776 0.77682-0.42256 1.4371-1.0322 1.9194-1.7737 0.97912-1.4242 2.1427-2.7525 5.0477-2.7525v0.84836s0.0664 0.89836-0.54054 0.97896c-0.72179 0.09225-1.709 0.29568-3.0717 2.1652-0.76711 1.0405-1.3125 1.2785-1.3125 1.2785zm-23.034-0.03447c-0.8448 0-1.3368-0.06911-1.4744-0.2112-0.13918-0.14193-0.21524-0.61418-0.21524-1.4242-0.34957 0.53488-0.85451 0.94918-1.4468 1.1863-0.86097 0.38323-1.7964 0.57194-2.7383 0.55268-1.0503 0.05114-2.091-0.22512-2.9794-0.79074-0.39812-0.27302-0.7218-0.64331-0.93866-1.0759-0.21525-0.43276-0.31882-0.91325-0.29617-1.3965-0.0226-0.4771 0.0615-0.9529 0.24276-1.3946s0.458-0.83832 0.80757-1.1623c0.76873-0.68328 1.921-1.0288 3.4245-1.0288h3.4018c0-0.76776-0.2379-1.3513-0.71371-1.6854-0.4758-0.33403-1.2024-0.49911-2.2382-0.49911h-2.2075c-0.82537 0-1.306-0.06911-1.4468-0.21104-0.14242-0.14209-0.21201-0.69493-0.21201-1.6048h3.7935c2.0197 0 3.4261 0.41204 4.2224 1.2361 0.68458 0.68344 1.0293 1.8082 1.0293 3.3708zm-2.2123-4.6376v-0.34164h-3.0717c-1.2478 0-1.9728 0.08059-2.1832 0.23806-0.21201 0.15731-0.31558 0.65642-0.31558 1.5355 0 1.0238 0.80757 1.5357 2.4227 1.5357 1.5634 0 2.4777-0.12801 2.7415-0.38388 0.26056-0.26493 0.38355-1.1518 0.38355-2.6375zm-9.4902-1.6124c0.0728 0.09209 0.14565 0.19194 0.21524 0.29568l0.10358 0.17656c-0.0842-0.17106-0.19097-0.32983-0.31882-0.47224zm0.76873 2.269c0 2.6386-1.7916 3.9568-5.3746 3.9542h-3.1607c-1.0892 0-1.7317-0.0806-1.9194-0.23806-0.18773-0.15731-0.26056-0.71014-0.26056-1.6585v-9.6936c0-0.94821 0.0842-1.5049 0.26056-1.6622 0.17641-0.15747 0.83347-0.23418 1.9194-0.23418h7.752c-0.0324 0.46367-0.0922 0.92507-0.1764 1.3821-0.0971 0.32238-0.22657 0.50283-0.89496 0.51044h-6.5221v3.7969h3.52c2.4648 0 3.6122 1.0443 4.1155 1.6239 0.12623 0.14242 0.23305 0.30118 0.31882 0.47224 0.29778 0.55171 0.44991 1.1698 0.44506 1.7967zm-2.3466 0.02687c0-1.336-0.95485-2.004-2.8678-2.004h-3.1623v4.077h3.1089c1.4565 0 2.3078-0.0882 2.5522-0.26477 0.24599-0.17284 0.38517-0.76792 0.38517-1.816zm24.855 3.9427c-1.1749 0-1.8628-0.0806-2.0537-0.23806-0.19259-0.15747-0.28808-0.71791-0.28808-1.6854v-2.9637h-5.3746v4.8987c-1.1523 0-1.8352-0.0806-2.0278-0.23806-0.19258-0.15731-0.2913-0.71791-0.2913-1.6854v-8.9603c1.1507 0 1.8385 0.08059 2.0311 0.23806 0.19097 0.15731 0.28807 0.70254 0.28807 1.6315v2.2575h5.3746v-4.127c1.1733 0 1.8611 0.08059 2.0537 0.23806 0.19097 0.15731 0.28807 0.70254 0.28807 1.6315z" fill="#cb2128" stroke-width="1.6184"/></svg>