<?xml version="1.0" encoding="UTF-8"?>
<svg width="256" height="256" version="1.1" viewBox="0 0 67.733 67.733" xmlns="http://www.w3.org/2000/svg">
<g transform="translate(-35.263 -95.979)">
<path d="m67.487 163.67c-7.6943-0.38957-14.86-3.2902-20.686-8.3739-0.82706-0.72162-2.4253-2.319-3.1273-3.1257-4.3452-4.9928-7.1013-10.936-8.0372-17.333-0.49052-3.3522-0.49803-6.5137-0.02338-9.8425 0.91954-6.4489 3.6995-12.476 8.0617-17.479 0.71211-0.81669 2.3095-2.414 3.1263-3.1261 5.0031-4.362 11.031-7.1418 17.48-8.0613 3.329-0.47463 6.4907-0.46712 9.843 0.02338 6.3967 0.93594 12.341 3.6919 17.334 8.0368 0.80671 0.702 2.4042 2.3002 3.1258 3.1272 4.359 4.9954 7.1426 11.03 8.0621 17.479 0.47465 3.3288 0.46714 6.4904-0.0234 9.8425-0.93597 6.3963-3.6957 12.347-8.0377 17.333-0.71131 0.81671-2.3102 2.4155-3.1269 3.1268-4.977 4.3343-10.912 7.0898-17.304 8.0337-2.297 0.33922-4.4758 0.45005-6.6666 0.33913zm3.7536-2.6028c5.9044-0.4334 11.238-2.3431 16.054-5.748 2.7033-1.9112 5.4004-4.6082 7.3117-7.3114 3.405-4.8157 5.3148-10.149 5.7483-16.053 0.0295-0.4014 0.0536-1.3515 0.0536-2.1113 0-0.75979-0.0241-1.7099-0.0536-2.1113-0.43332-5.9026-2.3409-11.23-5.7479-16.053-1.896-2.6841-4.6208-5.4087-7.3121-7.3114-4.816-3.4049-10.15-5.3146-16.054-5.748-0.9392-0.06895-3.2835-0.06895-4.2227 0-7.7675 0.57017-14.776 3.7946-20.18 9.285-5.2871 5.3708-8.3757 12.226-8.9338 19.828-0.06895 0.93916-0.06895 3.2834 0 4.2225 0.43343 5.9041 2.3432 11.238 5.7483 16.053 1.9028 2.6911 4.6275 5.4158 7.3117 7.3118 4.7821 3.3776 10.145 5.3089 15.95 5.744 0.84345 0.0632 3.4854 0.0655 4.327 4e-3zm-0.04468-4.1441c-0.21635-0.34196-0.67306-0.73193-1.0947-0.93471-0.30095-0.14475-0.4977-0.19599-0.99921-0.26028-0.69951-0.0897-1.7256-0.0776-1.9956 0.0235-0.09465 0.0354-0.18588 0.0506-0.20273 0.0338-0.0399-0.0399 0.21453-0.14154 0.47908-0.19136 0.11469-0.0216 0.33756-0.066 0.49526-0.0987 0.1577-0.0327 0.48147-0.0625 0.71949-0.0663 0.36248-6e-3 0.44109-0.0224 0.48406-0.10264 0.06883-0.12862-0.01314-0.27289-0.31256-0.55012l-0.23933-0.2216 0.2346 0.12944c0.39983 0.22062 0.75315 0.38899 0.81737 0.38953 0.21307 2e-3 0.28756-0.34774 0.14026-0.65814-0.04676-0.0985-0.07526-0.18893-0.06332-0.20087 0.01194-0.0119 0.12794 0.0691 0.25779 0.18009 0.3065 0.26198 0.59608 0.34507 1.4545 0.41732 0.78119 0.0658 1.7769 0.19491 1.9166 0.24857 0.07544 0.029 0.06881 0.0399-0.03979 0.0656-0.09483 0.0224-0.13033 0.0653-0.13033 0.15756 0 0.10172 0.06136 0.15914 0.31069 0.29077 0.28328 0.14955 0.49652 0.35189 0.43534 0.41307-0.01345 0.0135-0.15237-0.0448-0.3087-0.12948-0.35797-0.19387-1.0061-0.31433-1.8793-0.34927-0.90534-0.0362-1.0533 0.0601-0.72548 0.47258 0.15413 0.19393 0.47314 0.89574 0.47314 1.0409 0 0.16086-0.0865 0.12308-0.22714-0.0992zm-4.8944-3.7026c-0.62221-0.15079-1.0387-0.47977-1.206-0.9527-0.14137-0.39949-0.09784-1.2913 0.08887-1.8211 0.19648-0.55746 0.49963-1.2462 0.70517-1.6021 0.09935-0.17203 0.23677-0.41834 0.30537-0.54736 0.0686-0.12903 0.16989-0.29324 0.22509-0.36492 0.11222-0.14573 0.10553-0.12424-0.23555 0.7559-0.07778 0.2007-0.18664 0.55257-0.24192 0.78195-0.05528 0.22937-0.12334 0.50186-0.15124 0.60554-0.0279 0.10367-0.05073 0.45566-0.05073 0.78219 0 0.51286 0.02096 0.66 0.15395 1.0807 0.16285 0.51515 0.41968 0.91398 0.77962 1.2107 0.17724 0.14608 0.17957 0.15227 0.05579 0.14811-0.07105-2e-3 -0.26383-0.037-0.42841-0.0769zm-13.505-0.23634c-0.27115-0.0639-0.48488-0.18119-0.58163-0.31931-0.11809-0.16858-0.10152-0.50206 0.0362-0.72838 0.15298-0.25139 0.67088-0.66303 1.126-0.89496 0.19943-0.10162 0.61703-0.33541 0.928-0.51951 0.31097-0.1841 0.69442-0.39939 0.85213-0.47842 0.1577-0.079 0.34538-0.18402 0.41706-0.23332 0.07168-0.0493 0.26049-0.16017 0.41957-0.24642 0.15908-0.0863 0.59308-0.34434 0.96445-0.57356 0.37137-0.22922 1.0823-0.66073 1.5798-0.95891 0.49751-0.29819 0.95779-0.57735 1.0229-0.62036 0.06506-0.043 0.26796-0.16741 0.45089-0.27646 0.48226-0.28747 0.77406-0.47116 1.5056-0.94777 0.76406-0.49781 1.9577-1.2603 2.2015-1.4062 0.16029-0.0959 0.16584-0.0962 0.09234-5e-3 -0.06954 0.0864-0.4604 0.41559-2.4921 2.0989-0.58474 0.48445-0.65058 0.61747-0.34911 0.70532 0.17388 0.0507 0.81186 0.0189 1.2674-0.0631 0.90646-0.16321 1.2007-0.2195 1.3653-0.26116 0.10036-0.0254 0.27044-0.0687 0.37796-0.0963s0.1955-0.0421 0.1955-0.0322c0 0.0155-0.60256 0.42102-0.84786 0.57063-0.04702 0.0287-0.52649 0.3364-1.0655 0.68386-1.8575 1.1974-2.876 1.8369-4.0732 2.5575-0.89554 0.53904-1.0262 0.61392-1.718 0.98465-1.5566 0.83409-2.9405 1.2334-3.6751 1.0604zm16.646-2.0377c-1.04e-4 -0.0169 0.12202-0.44361 0.20911-0.69908 0.8474-2.4858 2.0468-4.5813 3.4755-6.0725 1.1145-1.1633 2.2077-1.9902 2.969-2.246 0.3756-0.12621 0.52273-0.14787 1.0046-0.14787 0.45152 0 0.57829-0.0165 0.6331-0.0826 0.10297-0.12406 0.0014-0.24313-0.28664-0.33606l-0.2473-0.0798 0.27819-0.11373c0.153-0.0626 0.53624-0.1948 0.85164-0.29389 0.53867-0.16922 0.67728-0.20804 1.1991-0.33578 1.0115-0.24765 2.2344-0.1818 3.2016 0.17239 0.32266 0.11817 0.50131 0.0902 0.49479-0.0775-0.0028-0.0717-0.02394-0.0786-0.047-0.13208-0.03582-0.0831-0.03578-0.16238 0.05721-0.14183 0.36714 0.0811 0 0 0.36714 0.0811 0.44259 0.0978 1.2451 0.34658 1.7802 0.66303 0.55451 0.32789 1.201 0.9448 1.5331 1.4629 0.30278 0.47237 0.42906 0.51931 0.54063 0.20101 0.05495-0.15679 0.06756-0.16621 0.10041-0.0751 0.02066 0.0573 0.06984 0.17736 0.10931 0.26669 0.27034 0.61205 0.31448 1.5373 0.10218 2.1417-0.33727 0.96024-0.90527 1.6354-2.1043 2.5013-0.74993 0.54157-0.84943 0.62612-0.99442 0.84501-0.28018 0.423-0.5513 0.61878-1.1381 0.82186-0.37373 0.12933-0.96653 0.11497-1.3032-0.0316-0.40911-0.17806-0.42581-0.22639-0.13679-0.39576 0.51107-0.29949 0.96763-0.84154 1.1424-1.3563 0.0571-0.16817 0.08569-0.43262 0.08668-0.80167 2e-3 -0.73579-0.11408-1.0202-0.62966-1.5435-0.29286-0.2972-0.46999-0.42409-0.85352-0.61144-0.73641-0.35973-1.3053-0.48304-2.4809-0.53779-0.79359-0.037-1.1678 2e-3 -2.1736 0.22602-1.3529 0.30136-2.8177 1.002-3.9881 1.9077-0.51952 0.40199-1.439 1.273-1.7385 1.6468-0.14774 0.1844-0.36302 0.45418-0.4784 0.59949-0.27502 0.34638-0.78877 1.1486-1.0706 1.6717-0.26243 0.48715-0.46442 0.94616-0.4647 0.90291zm15.563-3.9924c0.2501-0.17529 0.39019-0.7568 0.19992-0.82981-0.1364-0.0523-0.34359 0.0499-0.44209 0.21807-0.0905 0.15456-0.13176 0.54957-0.06444 0.61688 0.04617 0.0462 0.238 0.043 0.30662-5e-3zm1.2226-6.5396c-0.716-0.63861-1.6974-1.2485-2.4632-1.5307-0.54186-0.19967-1.1285-0.37594-1.3686-0.41118-1.1578-0.19928-2.6339-0.2973-3.7796-0.10535-0.41813 0.0481-1.739 0.34758-1.6097 0.26701 0.27084-0.15569 1.4312-0.53974 2.0007-0.65602 0.52619-0.10746 1.0682-0.21681 1.3454-0.27142 0.5829-0.11486 2.4398 4e-3 2.824 0.18112 0.67489 0.237 1.2397 0.55035 1.7737 0.94844 0.36907 0.28277 0.92431 0.82863 1.0862 1.0679 0.04851 0.0717 0.17354 0.25384 0.27785 0.40479 0.1043 0.15096 0.19933 0.33766 0.18782 0.34869-0.01151 0.0111-0.14561-0.12821-0.27464-0.24329zm-20.448-1.1097c-0.402-0.30567-0.92255-0.83835-1.1972-1.225-0.22566-0.31776-0.67016-1.1354-0.80772-1.4857-0.09308-0.23708-0.4135-1.2202-0.48424-1.4857-0.03437-0.12902-0.08499-0.31668-0.11249-0.41704-0.0899-0.32808-0.1824-1.0624-0.29875-2.3719-0.02802-0.31539-0.06768-0.72005-0.08813-0.89924-0.02535-0.22213-0.01582-0.51048 0.0227-0.51048 0.03108 0 0.06697 0.27263 0.08389 0.38015 0.04978 0.31636 0.06302 0.37751 0.20596 0.95137 0.07499 0.30106 0.15632 0.62948 0.18074 0.72983 0.04419 0.1816 0.06938 0.2556 0.40814 1.199 0.17234 0.47995 0.28952 0.77261 0.3772 0.94209 0.02332 0.0451 0.10747 0.20928 0.187 0.36491 0.26853 0.52544 1.0014 1.5834 1.4126 2.0389 1.081 1.1979 2.4802 2.0008 3.9234 2.2512 0.50299 0.13426 1.0429 0.1469 1.4622 0.15979 0.52598 0.0157 0.9661 0.0383 0.97805 0.0502 0.05499 0.055-0.76106 0.23918-1.5761 0.35574-1.6798 0.1862-3.3378-0.038-4.6774-1.0281zm5.7461-0.89539c-0.94917-0.32798-1.3389-0.5128-1.8044-0.8558-1.1627-0.85658-1.5681-2.4581-1.1073-4.3741 0.11808-0.49097 0.41856-1.407 0.47245-1.4404 0.03817-0.0236 0.04476 0.0138 0.02048 0.11632-0.22081 0.93225-0.20324 2.6897 0.03565 3.5656 0.24638 0.90341 0.79648 1.7472 1.4954 2.2937 0.13736 0.16707 1.9326 1.0234 0.88772 0.69454zm7.0141-2.6999c-0.75584-0.5181-1.1587-1.0332-1.3876-1.7741-0.09864-0.31936-0.10733-0.43081-0.07501-0.96252 0.05329-0.87678 0.31127-1.6207 1.1173-3.2217 0.7222-1.4345 0.86401-1.823 0.94634-2.5924 0.03236-0.30243 0.03216-0.56149-5.91e-4 -0.72982-0.02791-0.14352-0.0759-0.43378-0.10666-0.645-0.05154-0.35391-0.19657-0.87582-0.3134-1.1277-0.44053-0.94995-0.65664-1.3645-0.92396-1.7724-0.64658-0.9867-1.0608-1.5634-1.3969-1.9449-0.14379-0.1632-0.31875-0.37883-0.3888-0.47919-0.17649-0.25282-1.2221-1.4318-1.8228-2.0553-1.4461-1.501-3.1218-3.1331-4.8516-4.7254-1.7014-1.5662-3.4994-3.4188-4.246-4.3751-0.16788-0.21504-0.35449-0.44172-0.41468-0.50373-0.06019-0.062-0.20328-0.23352-0.31798-0.38114-0.11469-0.14761-0.28031-0.35492-0.36803-0.46069-0.4711-0.56795-2.1555-3.0254-2.25-3.2827-0.0181-0.0493-0.1387-0.26513-0.26801-0.47971-0.20501-0.3402-1.1841-2.2726-1.2745-2.5287-0.05431-0.15387 0.32277 0.48467 0.41961 0.67294 0.13596 0.26431 0.60947 1.0446 0.90424 1.49 0.1423 0.21503 0.29919 0.45894 0.34865 0.54201 0.04946 0.0831 0.18377 0.26279 0.29846 0.39937 0.11469 0.13658 0.34929 0.42845 0.52133 0.6486 1.2104 1.5488 3.4133 3.7515 5.4479 5.4471 0.10036 0.0836 0.32528 0.27631 0.49983 0.42816 0.17455 0.15184 0.47616 0.40511 0.67024 0.5628 0.19408 0.15769 0.53481 0.4392 0.75717 0.62556 0.22236 0.18637 0.55128 0.45614 0.73092 0.5995 0.17964 0.14335 0.36796 0.29909 0.41849 0.34609 0.05053 0.047 0.2059 0.1761 0.34528 0.2869 0.13938 0.1108 0.44109 0.35905 0.67048 0.55166 0.22938 0.19262 0.78342 0.65152 1.2312 1.0198 0.93165 0.76625 1.5098 1.2564 2.2273 1.8882 0.277 0.24393 0.78443 0.68963 1.1276 0.99047 0.75714 0.6637 1.725 1.5826 2.0537 1.9497 0.13298 0.14853 0.40907 0.45671 0.61353 0.68482 0.20446 0.22811 0.47633 0.54376 0.60416 0.70145 0.44944 0.55446 1.2235 1.7828 1.32 2.0948 0.02056 0.0664 0.08139 0.20803 0.1352 0.31467 0.30773 0.60994 0.53788 2.1018 0.40979 2.6563-0.3121 1.351-0.84879 2.3839-2.0267 3.9007-0.59611 0.7676-0.99159 1.3079-1.1828 1.616-0.79698 1.2841-0.84387 2.5925-0.12489 3.4847 0.14219 0.17644 0.24103 0.31997 0.21964 0.31896-0.02139-9.9e-4 -0.15517-0.0815-0.29728-0.17897zm1.1554-0.86274c-0.06146-0.23502 0.2022-1.2297 0.4381-1.6527 0.23075-0.41377 0.60612-0.88703 1.3081-1.6492 0.77269-0.83896 1.1026-1.2909 1.3743-1.8827 0.26524-0.57769 0.34039-0.84699 0.40772-1.4611l0.06287-0.57343 0.09523 0.31278c0.12984 0.4265 0.08978 1.3751-0.07597 1.7985-0.40066 1.0235-0.80947 1.6006-1.9019 2.6847-0.95281 0.94554-1.2874 1.4235-1.5811 2.2587-0.07894 0.2245-0.10336 0.25603-0.12732 0.16439zm-17.508-6.4463c-0.63728-0.2316-1.4552-0.78293-1.7654-1.19-0.10036-0.13168-0.23095-0.3028-0.2902-0.38028-0.10263-0.13417-0.2351-0.39734-0.44413-0.88231-0.16643-0.38615-0.27032-0.96072-0.2901-1.6044l-0.01922-0.62557 0.09922 0.19339c0.2597 0.50621 0.95262 1.4048 1.4214 1.8434 1.0097 0.94456 2.5746 1.8052 4.0586 2.2319 0.52997 0.1524 1.378 0.33687 1.8246 0.39689 0.24372 0.0327 0.59562 0.0839 0.78199 0.11374 0.18638 0.0298 0.70249 0.0698 1.1469 0.0888 0.75051 0.0322 0.82808 0.0605 0.36493 0.13336-0.53251 0.0981-1.1289 0.12882-1.5736 0.17883-1.8731 0.23864-3.6833 0.0875-5.315-0.49775zm5.569-3.8039c-1.6071-0.16015-3.6209-0.55646-5.3273-1.0908-1.3548-0.42257-2.8717-1.2957-3.7018-2.1308-0.76892-0.77354-1.2661-1.8384-1.4852-2.7137-0.03292-0.13157-0.07902-0.38229-0.10408-0.57343-0.02282-0.17398-0.0389-0.42927-0.03402-0.57343 0.02887-0.85316 0.14034-1.2194 0.18556-1.3814 0.028-0.10036 0.08077-0.29389 0.11727-0.43008 0.0365-0.13618 0.08234-0.24762 0.10186-0.24762 0.01953 0 0.04681 0.0997 0.06063 0.22156 0.04481 0.39513 0.64022 1.816 0.98796 2.3576 0.56255 0.87623 0.93885 1.3456 1.6548 2.0642 1.2184 1.2229 2.5075 2.1294 4.1459 2.9155 0.97971 0.47005 0.95794 0.46095 2.2938 0.95926 0.46636 0.15169 2.6522 0.73593 1.1046 0.62311zm0.33476-4.6624c-0.42262-0.16907-1.1627-0.5111-1.9868-0.91814-1.8322-0.90505-3.1879-1.7356-4.6055-2.8214-0.74914-0.57379-0.8383-0.65326-1.5883-1.416-0.67352-0.68496-0.89043-0.94251-1.3721-1.6292-0.53912-0.76851-1.136-2.0931-1.2217-2.7111-0.19215-0.74191-0.15003-1.3791-0.10076-2.1248 0.04507-0.69624 0.34656-1.6025 0.91136-2.7394 0.18831-0.37907 0.60604-1.0114 0.66898-1.0126 0.04919-9.7e-4 0.05659 0.0319 0.02607 0.11594-0.0708 0.19489-0.05087 2.2166 0.02532 2.5674 0.03736 0.17202 0.11575 0.53563 0.1742 0.80801 0.19117 0.89091 0.53919 1.9723 0.87146 2.6987 0.07296 0.15948 0.05939 0.0895 0.05939 0.12859l0.37055 0.71752c0.28358 0.55644 0.78729 1.3934 1.0323 1.7153 0.0743 0.0976 0.18201 0.25367 0.23935 0.34676 0.13374 0.21712 0.464 0.64854 0.86453 1.1293 0.479 0.57496 2.2683 2.4146 2.6707 2.7458 0.19533 0.16078 0.48125 0.39789 0.63538 0.52691 0.5908 0.49457 0.99992 0.82086 1.2458 0.99359 0.14041 0.0986 0.33982 0.24267 0.44313 0.32008 0.10331 0.0774 0.32273 0.22736 0.4876 0.33322 0.16487 0.10587 0.29976 0.21261 0.29976 0.2372 0 0.0246-0.0059 0.0432-0.01303 0.0414-0.0072-2e-3 -0.06911-0.0257-0.13765-0.0532z" stroke-width=".052131"/>
</g>
</svg>
