<svg fill="none" version="1.1" viewBox="0 0 127.1 25" xmlns="http://www.w3.org/2000/svg"><path d="m28.587 0h5.8921c3.0298 0 5.0373 2.435 5.0373 4.8513 0 2.4535-2.026 4.9628-5.0373 4.9628h-3.6432v3.9963h-2.249zm5.7063 7.7509c1.9517 0 2.9554-1.4684 2.9554-2.8439 0-1.394-1.0223-2.8252-2.9554-2.8252h-3.4573v5.6691z" fill="#323e48" stroke-width=".70611"/><path d="m40.185 8.7734c0-2.9554 2.0446-5.2787 5.1488-5.2787 3.2156 0 4.7583 2.7137 4.7583 5.3532v0.57619h-7.6952c0.27884 1.7101 1.7844 2.6952 3.7918 2.6952 1.2454 0 2.3607-0.37177 3.2343-0.89217v1.8588c-0.79932 0.57619-2.1748 0.9851-3.699 0.9851-3.0483 0-5.539-2.0818-5.539-5.2975zm7.6952-1.0222c-0.01857-1.0781-0.85503-2.3978-2.6394-2.3978-1.6914 0-2.6766 1.171-2.8066 2.3978z" fill="#323e48" stroke-width=".70611"/><path d="m52.1 3.7547h2.2119v3.922h5.093v-3.922h2.2119v10.037h-2.2119v-4.1636h-5.093v4.1822h-2.2119z" fill="#323e48" stroke-width=".70611"/><path d="m63.55 8.7734c0-2.9554 2.0446-5.2787 5.1487-5.2787 3.2159 0 4.7588 2.7137 4.7588 5.3532v0.57619h-7.677c0.27877 1.7101 1.7843 2.6952 3.7918 2.6952 1.2457 0 2.3607-0.37177 3.2341-0.89217v1.8588c-0.79932 0.57619-2.1748 0.9851-3.6988 0.9851-3.067 0-5.5577-2.0818-5.5577-5.2975zm7.6952-1.0222c-0.01836-1.0781-0.85503-2.3978-2.6394-2.3978-1.6914 0-2.6766 1.171-2.8067 2.3978z" fill="#323e48" stroke-width=".70611"/><path d="m74.796 8.7549c0-3.1598 2.4905-5.2602 5.4462-5.2602 1.2258 0 2.119 0.22299 3.0299 0.68768v1.8959c-0.87417-0.42748-1.7109-0.65054-2.6959-0.65054-1.97 0-3.5687 1.3754-3.5687 3.3271s1.5986 3.3643 3.5687 3.3643c1.134 0 2.0075-0.24163 2.8633-0.7621v1.8774c-0.96737 0.55762-1.915 0.81782-3.2163 0.81782-2.9367 0.01857-5.4272-2.1003-5.4272-5.2975z" fill="#323e48" stroke-width=".70611"/><path d="m84.535 8.7549c0-3.1598 2.4898-5.2602 5.4455-5.2602 1.2272 0 2.119 0.22299 3.0299 0.68768v1.8959c-0.87346-0.42748-1.7102-0.65054-2.6952-0.65054-1.97 0-3.5687 1.3754-3.5687 3.3271s1.5986 3.3643 3.5687 3.3643c1.1333 0 2.0068-0.24163 2.8626-0.7621v1.8774c-0.96667 0.55762-1.915 0.81782-3.2156 0.81782-2.9184 0.01857-5.4272-2.1003-5.4272-5.2975z" fill="#323e48" stroke-width=".70611"/><path d="m105.39 11.952v1.6728c-0.31634 0.22313-0.8551 0.33456-1.283 0.33456-0.98503 0-1.8218-0.42741-2.1-1.4311-0.72517 0.81782-1.9517 1.5613-3.6993 1.5613-2.1007 0-3.7728-1.2267-3.7728-3.3829 0-2.2305 1.6721-2.9554 3.7918-2.9554h3.4571v-0.16735c0-1.7472-1.3946-2.1933-2.9558-2.1933-1.1707 0-2.4163 0.42748-3.1789 0.89217v-1.9331c0.72517-0.40891 1.8959-0.85496 3.6626-0.85496 2.6952 0 4.6462 1.3011 4.6462 3.8476v3.736c0 0.63197 0.35376 1.0037 0.83674 1.0037 0.1857 0 0.40954-0.03721 0.59525-0.13007zm-3.6245-2.5466h-2.6585c-1.4496 0-2.3789 0.31598-2.3789 1.2826 0 1.0967 0.96666 1.4684 2.1741 1.4684 1.2089 0 2.2864-0.57619 2.8633-1.2082z" fill="#323e48" stroke-width=".70611"/><path d="m107.01 3.7547h2.2115v3.922h5.0932v-3.922h2.2122v10.037h-2.2122v-4.1636h-5.0932v4.1822h-2.2115z" fill="#323e48" stroke-width=".70611"/><path d="m118.46 8.7549c0-3.1598 2.4904-5.2602 5.4455-5.2602 1.2272 0 2.119 0.22299 3.0299 0.68768v1.8959c-0.87346-0.42748-1.7095-0.65054-2.6945-0.65054-1.9708 0-3.5694 1.3754-3.5694 3.3271s1.5986 3.3643 3.5694 3.3643c1.1333 0 2.0075-0.24163 2.8619-0.7621v1.8774c-0.96596 0.55762-1.9143 0.81782-3.2149 0.81782-2.9374 0.01857-5.4279-2.1003-5.4279-5.2975z" fill="#323e48" stroke-width=".70611"/><path d="m28.587 19.071h1.0222v1.9515l1.8216-1.9515h1.2454l-2.1005 2.2675 2.4536 2.6767h-1.3011l-2.119-2.2677v2.2677h-1.0222z" fill="#323e48" stroke-width=".70611"/><path d="m34.442 19.071h2.1562c1.078 0 1.71 0.61333 1.71 1.4869 0 0.8736-0.63197 1.487-1.71 1.487h-1.1339v1.9517h-1.0223zm2.0818 2.1003c0.48333 0 0.78068-0.22306 0.78068-0.6134 0-0.40891-0.29734-0.6134-0.78068-0.6134h-1.0781v1.2268z" fill="#323e48" stroke-width=".70611"/><path d="m39.851 19.071h3.6245v0.91074h-2.6022v0.94795h2.1003v0.89217h-2.1003v1.2639h2.6765v0.91081h-3.6988z" fill="#323e48" stroke-width=".70611"/><path d="m44.888 23.086h0.48333c0.42748-0.66911 0.65054-1.5614 0.65054-3.2342v-0.7806h3.4573v4.0148h0.66911v1.9145h-0.94795v-1.0037h-3.3829v1.0037h-0.94795v-1.9145zm3.5874 0v-3.1041h-1.4499c0 1.0223-0.05571 2.1375-0.53898 3.1041z" fill="#323e48" stroke-width=".70611"/><path d="m51.709 19.071h1.0223v3.2155l2.3792-3.2155h0.8736v4.9256h-1.0037v-3.2343l-2.4163 3.2343h-0.8551z" fill="#323e48" stroke-width=".70611"/><path d="m61.654 19.071v0.91074h-1.5614v4.0149h-1.0223v-4.0149h-1.5614v-0.91074z" fill="#323e48" stroke-width=".70611"/><path d="m3.5502 24.851h-3.5502v-15.316c0-5.2602 4.2751-9.5353 9.5354-9.5353h11.766v9.4424c0 5.2602-4.2751 9.5354-9.5353 9.5354h-5.948l1.3569-3.5502h4.5911c3.3085 0 5.9851-2.6952 5.9851-5.9852v-5.8922h-8.2156c-3.3086 0-5.9852 2.6952-5.9852 5.9851z" fill="url(#a)" stroke-width=".70611"/><defs><radialGradient id="a" cx="0" cy="0" r="1" gradientTransform="matrix(20.617 0 0 20.617 .70891 23.854)" gradientUnits="userSpaceOnUse"><stop stop-color="#D6005E" offset="0"/><stop stop-color="#E3448A" offset="1"/></radialGradient></defs></svg>