<svg version="1.1" viewBox="0 0 102.82 25" xmlns="http://www.w3.org/2000/svg"><path d="m8.0025 11.41c-0.2621 7.0477-0.94386 11.074-2.1819 13.187 0.8515 0.2701 1.7397 0.40592 2.6329 0.40255 0.88921-1.44e-4 1.7732-0.13587 2.6217-0.40255-1.2268-2.1048-1.9086-6.1288-2.1707-13.187z" fill="#112e68" stroke-width=".48232"/><path d="m45.061 12.344c0-0.68734 0-3.81-3.86-3.81h-7.5508v11.116h3.6639v-3.2075h3.8829c3.864 0 3.864-3.3691 3.864-4.0983zm-5.1324 1.3349h-2.6254v-2.3804h2.6702c0.40618 0 1.4407 0 1.4407 1.1423-3e-3 1.2381-1.0245 1.2381-1.4855 1.2381z" fill="#112e68" stroke-width=".6431"/><path d="m59.954 8.5336-3.9573 9.2582-3.9018-9.2582h-4.1109l-4.7411 11.116h3.8461l0.89603-2.2836h4.097l0.86716 2.2836h6.1393l2.9081-8.0211 2.9087 8.0211h3.8592l-4.7956-11.116zm-11.09 6.2732 1.133-3.1645 0.02785 0.02791 1.1748 3.1366z" fill="#112e68" stroke-width=".6431"/><path d="m98.956 12.757v0.01395h-3.7345v-1.4446h7.0484v-2.7794h-10.712v11.117h7.44c3.8174 0 3.8174-2.2707 3.8174-3.5357 0-1.2111 0-3.3711-3.8592-3.3711zm-0.59744 4.3068v0.01299h-3.1332v-1.7189h3.1184c0.82574 0 0.82574 0.56368 0.82574 0.81108s-5e-3 0.89487-0.81481 0.89487z" fill="#112e68" stroke-width=".6431"/><path d="m27.036 13.266-2.3487-4.7328h-4.098l4.531 7.9792-1.804 3.1366h3.9715l6.0832-11.116h-3.9715z" fill="#112e68" stroke-width=".6431"/><path d="m67.841 14.247c0 3.1776 2.1396 5.4063 4.8946 5.4063h5.0059v-2.7555h-3.202c-1.957 0-3.0341-0.42599-3.0341-2.7106s1.0489-2.8752 3.0341-2.8752h3.202v-2.7784h-4.9641c-2.7827 0-4.9364 2.1319-4.9364 5.7135z" fill="#112e68" stroke-width=".6431"/><path d="m82.175 16.183v-7.649h-3.6779v11.116h4.3769l4.2792-7.8415v7.8415h3.6637v-11.116h-4.4612z" fill="#112e68" stroke-width=".6431"/><path d="m10.299 8.5336c-0.19939-2.6832-0.19939-3.7666-0.22028-5.0977h-0.67202c0 0.01051 0.03135 3.7352 0.04177 4.9631-0.2307-0.03068-0.46144-0.04115-0.71307-0.06135 0-2.1467 0-6.057-0.01047-8.3376h-0.55631c-0.01047 2.2806-0.01047 6.2014-0.01047 8.3376-0.25163 0.0097-0.48237 0.03068-0.71307 0.06135 0.01042-1.2279 0.04254-4.9421 0.04254-4.9631h-0.68177c0 1.3311 0 2.4146-0.19934 5.0977-3.7858 0.82309-6.6069 4.1565-6.6069 8.1393 7.91e-4 1.3879 0.34866 2.7534 1.0118 3.9719 0.66316 1.2185 1.6205 2.251 2.7845 3.0032 3.0735-3.0333 3.5663-11.587 3.5663-12.165-0.38272 0.02909-0.76198 0.09371-1.1327 0.19307-0.68176 3.9828-2.4224 7.3469-4.4056 9.1831-0.75492-1.0834-1.1328-2.2806-1.1328-3.4464 0.02091-3.6836 3.5656-6.5209 7.7718-6.5209 4.1816 0 7.7501 2.8478 7.7501 6.5209 0 1.1657-0.38755 2.3524-1.1328 3.4464-1.9818-1.8362-3.7335-5.2002-4.4056-9.1831-0.37072-0.10037-0.74992-0.16602-1.1327-0.19606 0 0.57763 0.49356 9.1285 3.5663 12.166 2.2759-1.4965 3.7963-4.0764 3.7963-6.9758 0.0015-3.9799-2.8196-7.3132-6.6054-8.1363z" fill="#112e68" stroke-width=".48232"/></svg>