<svg xmlns="http://www.w3.org/2000/svg" version="1.1" xmlns:xlink="http://www.w3.org/1999/xlink" xmlns:svgjs="http://svgjs.com/svgjs" width="512" height="512" x="0" y="0" viewBox="0 0 152 152" style="enable-background:new 0 0 512 512" xml:space="preserve" class=""><g><g xmlns="http://www.w3.org/2000/svg" id="Layer_2" data-name="Layer 2"><g id="Color"><g id="_13.Skype" data-name="13.Skype"><circle id="Background" cx="76" cy="76" fill="#03a9f4" r="76" data-original="#03a9f4" class=""></circle><path id="Icon" d="m113.62 84.45c5.79-26-17-49.64-43.75-45.11-14.53-9.01-33.87 1.17-33.87 18.46a21.5 21.5 0 0 0 3 11c-5.38 26.07 17.6 49.36 44.33 44.51 18.93 10.02 39.82-9.91 30.29-28.86zm-25.43 15.68c-7 2.89-18.58 2.91-25.57-.75-10-5.32-11.74-17.29-3.14-17.29 6.48 0 4.43 7.56 11 10.64 3 1.39 9.46 1.53 13.21-1s3.31-6.38 1.31-8.25c-5.34-4.93-20.61-3-27.6-11.6a12.54 12.54 0 0 1 .13-15.13c6.5-8.37 25.57-8.88 33.78-2.56 7.57 5.86 5.53 13.64-.59 13.64-7.35 0-3.48-9.62-15.35-9.62-8.6 0-12 6.12-5.93 9.1 8.24 4.08 29.16 2.69 29.16 18.69 0 6.63-4.08 11.58-10.41 14.16z" fill="#ffffff" data-original="#ffffff"></path></g></g></g></g></svg>