<svg xmlns="http://www.w3.org/2000/svg" version="1.1" xmlns:xlink="http://www.w3.org/1999/xlink" xmlns:svgjs="http://svgjs.com/svgjs" width="512" height="512" x="0" y="0" viewBox="0 0 64 64" style="enable-background:new 0 0 512 512" xml:space="preserve" class=""><g><g xmlns="http://www.w3.org/2000/svg" id="Icons" fill="none" fill-rule="evenodd"><g id="Social-Media-Collection" fill="#67d449" transform="translate(-122 -396)"><g id="Whatsapp" transform="translate(122 396)"><path id="Fill-232" d="m39.8258 37.522c-.33.926-1.914 1.77-2.676 1.884-.682.102-1.546.144-2.496-.156-.576-.184-1.314-.428-2.258-.836-3.976-1.716-6.574-5.718-6.772-5.982s-1.618-2.148-1.618-4.098 1.024-2.91 1.388-3.306c.362-.396.792-.496 1.056-.496s.528.002.76.014c.244.012.57-.092.892.68.33.794 1.122 2.744 1.222 2.942.098.198.164.43.032.694s-.198.43-.396.662c-.198.23-.416.516-.594.694-.198.196-.406.412-.174.808s1.026 1.694 2.204 2.744c1.514 1.35 2.792 1.768 3.188 1.968.396.198.628.164.858-.1.232-.264.992-1.156 1.256-1.554.264-.396.528-.33.892-.198.362.132 2.312 1.09 2.708 1.29.396.198.66.296.76.462.098.166.098.958-.232 1.884m-7.754-18.844c-7.272 0-13.188 5.912-13.19 13.178 0 2.49.696 4.916 2.016 7.014l.314.498-1.332 4.864 4.99-1.308.48.284c2.024 1.202 4.344 1.838 6.71 1.838h.006c7.266 0 13.18-5.912 13.184-13.18 0-3.522-1.368-6.832-3.858-9.324-2.49-2.49-5.8-3.864-9.32-3.864" fill="#67d449" data-original="#000000" class=""></path><g id="Fill-324"><path id="Fill-233" d="m32.066 47.724h-.006c-2.656 0-5.264-.666-7.58-1.93l-8.41 2.206 2.252-8.218c-1.388-2.404-2.12-5.132-2.118-7.928.004-8.742 7.118-15.854 15.862-15.854 4.242 0 8.226 1.652 11.22 4.65 2.994 2.996 4.644 6.98 4.642 11.218-.004 8.742-7.12 15.856-15.862 15.856m-.066-47.724c-17.674 0-32 14.326-32 32 0 17.672 14.326 32 32 32 17.672 0 32-14.328 32-32 0-17.674-14.328-32-32-32" fill="#67d449" data-original="#000000" class=""></path></g></g></g></g></g></svg>